<?xml version="1.0" standalone="no"?>
<!DOCTYPE svg PUBLIC "-//W3C//DTD SVG 20010904//EN"
 "http://www.w3.org/TR/2001/REC-SVG-20010904/DTD/svg10.dtd">
<svg version="1.0" xmlns="http://www.w3.org/2000/svg"
 width="1000.000000pt" height="1000.000000pt" viewBox="0 0 1000.000000 1000.000000"
 preserveAspectRatio="xMidYMid meet">

<g transform="translate(0.000000,1000.000000) scale(0.100000,-0.100000)"
fill="#000000" stroke="none">
<path d="M1297 4302 c-3 -4 -57 -149 -120 -322 -64 -173 -119 -323 -122 -332
-7 -16 2 -18 92 -18 l99 0 18 55 17 55 123 0 122 0 18 -55 17 -55 99 0 99 0
-32 88 c-17 48 -72 200 -122 337 l-92 250 -105 3 c-59 1 -109 -1 -111 -6z
m147 -310 c19 -55 32 -103 28 -106 -3 -3 -37 -6 -75 -6 -51 0 -68 3 -65 13 3
6 20 56 38 110 17 54 34 96 36 94 2 -2 20 -49 38 -105z"/>
<path d="M2090 4081 c0 -126 -4 -241 -9 -254 -20 -51 -83 -42 -103 14 l-10 29
-90 0 -91 0 6 -45 c7 -51 35 -112 64 -137 65 -59 209 -78 295 -40 52 23 93 69
108 120 5 21 10 147 10 290 l0 252 -90 0 -90 0 0 -229z"/>
<path d="M2390 4078 c0 -130 5 -250 10 -270 15 -53 69 -119 120 -148 37 -20
62 -25 140 -28 92 -4 97 -3 160 30 76 39 122 98 139 178 6 28 11 145 11 260
l0 210 -95 0 -95 0 0 -217 c0 -198 -2 -221 -20 -250 -35 -58 -135 -57 -171 0
-17 29 -19 53 -19 250 l0 217 -90 0 -90 0 0 -232z"/>
<path d="M3080 3970 l0 -340 90 0 90 0 0 146 c0 116 3 144 13 136 6 -6 55 -71
107 -146 l95 -135 114 -1 c89 0 111 3 104 13 -6 6 -65 85 -132 174 l-121 162
126 166 125 165 -108 0 -108 0 -105 -146 -105 -146 -3 146 -3 146 -89 0 -90 0
0 -340z"/>
<path d="M3977 4302 c-3 -4 -57 -149 -120 -322 -64 -173 -119 -323 -122 -332
-7 -16 2 -18 92 -18 l99 0 18 55 17 55 123 0 122 0 18 -55 17 -55 99 0 99 0
-32 88 c-17 48 -72 200 -122 337 l-92 250 -105 3 c-59 1 -109 -1 -111 -6z
m147 -310 c19 -55 32 -103 28 -106 -3 -3 -37 -6 -75 -6 -51 0 -68 3 -65 13 3
6 20 56 38 110 17 54 34 96 36 94 2 -2 20 -49 38 -105z"/>
<path d="M4500 3970 l0 -340 95 0 95 0 2 187 3 188 124 -188 124 -187 93 0 94
0 0 340 0 340 -95 0 -95 0 -2 -189 -3 -188 -121 186 -122 186 -96 3 -96 3 0
-341z"/>
<path d="M5627 4302 c-3 -4 -57 -149 -120 -322 -64 -173 -119 -323 -122 -332
-7 -16 2 -18 92 -18 l99 0 18 55 17 55 123 0 122 0 18 -55 17 -55 99 0 99 0
-32 88 c-17 48 -72 200 -122 337 l-92 250 -105 3 c-59 1 -109 -1 -111 -6z
m147 -310 c19 -55 32 -103 28 -106 -3 -3 -37 -6 -75 -6 -51 0 -68 3 -65 13 3
6 20 56 38 110 17 54 34 96 36 94 2 -2 20 -49 38 -105z"/>
<path d="M6150 3970 l0 -340 158 0 c180 0 252 14 322 61 92 63 140 158 140
278 0 168 -88 285 -245 326 -41 10 -107 15 -217 15 l-158 0 0 -340z m352 153
c56 -32 78 -76 78 -153 0 -115 -57 -170 -177 -170 l-63 0 0 176 0 177 65 -5
c37 -3 78 -14 97 -25z"/>
<path d="M6862 4063 l3 -248 27 -52 c48 -90 130 -134 251 -134 125 -1 214 48
265 145 27 51 27 52 30 294 l4 242 -96 0 -96 0 0 -226 0 -226 -29 -29 c-54
-54 -151 -32 -170 39 -6 20 -11 128 -11 240 l0 202 -91 0 -90 0 3 -247z"/>
<path d="M7741 4288 c-5 -13 -56 -153 -114 -313 -58 -159 -110 -302 -116 -317
l-11 -28 100 0 99 0 17 55 18 55 122 0 123 0 17 -55 18 -55 99 0 c54 0 97 4
95 9 -1 5 -57 158 -123 340 l-120 331 -108 0 c-102 0 -108 -1 -116 -22z m150
-285 c17 -54 34 -104 37 -110 3 -10 -14 -13 -67 -13 -51 0 -71 4 -71 13 0 16
59 207 65 207 2 0 18 -44 36 -97z"/>
<path d="M8280 3970 l0 -340 90 0 90 0 2 188 3 187 125 -187 125 -187 93 -1
92 0 0 340 0 340 -90 0 -90 0 -2 -192 -3 -193 -127 193 -127 192 -91 0 -90 0
0 -340z"/>
<path d="M2301 3322 c-95 -48 -105 -172 -20 -235 37 -27 106 -33 152 -14 36
16 37 17 37 71 0 49 -3 56 -19 56 -17 0 -20 -8 -23 -47 l-3 -48 -48 -3 c-41
-3 -51 1 -77 27 -42 42 -42 100 0 143 32 32 25 31 139 16 38 -5 37 21 -3 37
-47 20 -93 19 -135 -3z"/>
<path d="M2870 3200 l0 -140 100 0 c93 0 100 1 100 20 0 18 -7 20 -75 20 l-75
0 0 45 0 45 65 0 c51 0 65 3 65 15 0 12 -14 15 -65 15 l-65 0 0 40 0 40 75 0
c68 0 75 2 75 20 0 19 -7 20 -100 20 l-100 0 0 -140z"/>
<path d="M3460 3200 l0 -143 83 5 c129 8 181 48 181 138 0 91 -53 131 -181
138 l-83 5 0 -143z m196 66 c16 -18 24 -40 24 -66 0 -26 -8 -48 -24 -66 -20
-24 -32 -28 -90 -32 l-66 -4 0 102 0 102 66 -4 c58 -4 70 -8 90 -32z"/>
<path d="M4112 3230 c3 -103 5 -111 30 -136 36 -36 110 -44 155 -15 40 25 53
69 53 179 0 81 0 82 -25 82 -25 0 -25 0 -25 -98 0 -118 -11 -142 -69 -142 -62
0 -75 24 -79 141 -4 91 -5 99 -24 99 -19 0 -20 -6 -16 -110z"/>
<path d="M4750 3200 c0 -132 1 -140 20 -140 18 0 20 8 22 98 l3 97 80 -97
c110 -136 115 -134 115 42 l0 140 -25 0 c-24 0 -24 -1 -27 -95 l-3 -96 -78 96
c-43 52 -84 95 -92 95 -13 0 -15 -24 -15 -140z"/>
<path d="M5451 3322 c-95 -48 -105 -172 -20 -235 37 -27 106 -33 152 -14 36
16 37 17 37 71 0 49 -3 56 -19 56 -17 0 -20 -8 -23 -47 l-3 -48 -48 -3 c-41
-3 -51 1 -77 27 -42 42 -42 100 0 143 32 32 25 31 139 16 38 -5 37 21 -3 37
-47 20 -93 19 -135 -3z"/>
<path d="M6450 3200 l0 -140 25 0 c24 0 25 3 25 55 l0 55 65 0 c58 0 65 2 65
20 0 18 -7 20 -65 20 l-65 0 0 45 0 45 75 0 c68 0 75 2 75 20 0 19 -7 20 -100
20 l-100 0 0 -140z"/>
<path d="M7054 3326 c-17 -8 -34 -21 -38 -31 -21 -56 10 -95 94 -115 56 -13
77 -37 56 -65 -10 -14 -23 -16 -67 -13 -30 2 -62 8 -71 12 -14 6 -18 4 -18
-13 0 -26 66 -46 125 -38 44 6 85 44 85 78 0 30 -41 65 -86 73 -46 9 -84 31
-84 50 0 33 50 47 118 32 26 -6 32 -4 32 8 0 34 -89 47 -146 22z"/>
<path d="M7560 3320 c0 -17 7 -20 50 -20 l50 0 0 -120 c0 -113 1 -120 20 -120
19 0 20 7 20 120 l0 120 45 0 c38 0 45 3 45 20 0 19 -7 20 -115 20 -108 0
-115 -1 -115 -20z"/>
</g>
</svg>
