<?xml version="1.0" standalone="no"?>
<!DOCTYPE svg PUBLIC "-//W3C//DTD SVG 20010904//EN"
 "http://www.w3.org/TR/2001/REC-SVG-20010904/DTD/svg10.dtd">
<svg version="1.0" xmlns="http://www.w3.org/2000/svg"
 width="1000.000000pt" height="1000.000000pt" viewBox="0 0 1000.000000 1000.000000"
 preserveAspectRatio="xMidYMid meet">

<g transform="translate(0.000000,1000.000000) scale(0.100000,-0.100000)"
fill="#000000" stroke="none">
<path d="M5577 6812 c-3 -4 -57 -149 -120 -322 -64 -173 -119 -323 -122 -332
-7 -16 2 -18 92 -18 l99 0 18 55 17 55 123 0 122 0 18 -55 17 -55 99 0 99 0
-32 88 c-17 48 -72 200 -122 337 l-92 250 -105 3 c-59 1 -109 -1 -111 -6z
m147 -310 c19 -55 32 -103 28 -106 -3 -3 -37 -6 -75 -6 -51 0 -68 3 -65 13 3
6 20 56 38 110 17 54 34 96 36 94 2 -2 20 -49 38 -105z"/>
<path d="M6360 6576 c0 -209 -2 -247 -16 -260 -31 -32 -77 -11 -90 40 -6 23
-9 24 -95 24 l-89 0 0 -27 c0 -82 48 -156 125 -193 33 -16 63 -21 121 -21 122
0 196 49 224 150 5 20 10 147 10 284 l0 247 -95 0 -95 0 0 -244z"/>
<path d="M6670 6583 c1 -256 5 -284 54 -348 15 -19 48 -47 74 -62 40 -24 60
-28 142 -31 92 -4 97 -3 160 30 76 39 122 98 139 178 6 28 11 145 11 260 l0
210 -95 0 -95 0 0 -217 c0 -198 -2 -221 -20 -250 -35 -58 -135 -57 -171 0 -17
29 -19 53 -19 250 l0 217 -90 0 -90 0 0 -237z"/>
<path d="M7350 6480 l0 -340 95 0 94 0 3 147 3 148 105 -148 104 -147 113 0
113 0 -131 175 -131 174 121 160 c67 88 121 162 121 165 0 3 -47 6 -104 6
l-103 0 -104 -145 -104 -145 -3 145 -3 145 -94 0 -95 0 0 -340z"/>
<path d="M8136 6493 c-66 -181 -121 -334 -124 -341 -3 -10 17 -12 93 -10 l98
3 17 50 17 50 124 3 124 3 15 -53 15 -53 98 -3 c54 -1 97 1 97 6 0 8 -205 577
-235 655 -6 15 -22 17 -114 17 l-106 0 -119 -327z m294 -90 c0 -9 -20 -13 -70
-13 -38 0 -70 4 -70 8 0 8 53 170 66 202 6 14 74 -168 74 -197z"/>
<path d="M8780 6480 l0 -340 95 0 95 0 2 188 3 187 124 -187 123 -188 94 0 94
0 0 340 0 340 -95 0 -95 0 -2 -189 -3 -188 -121 186 -122 186 -96 3 -96 3 0
-341z"/>
<path d="M5577 6032 c-3 -4 -57 -149 -120 -322 -64 -173 -119 -323 -122 -332
-7 -16 2 -18 92 -18 l99 0 18 55 17 55 123 0 122 0 18 -55 17 -55 99 0 99 0
-32 88 c-17 48 -72 200 -122 337 l-92 250 -105 3 c-59 1 -109 -1 -111 -6z
m147 -310 c19 -55 32 -103 28 -106 -3 -3 -37 -6 -75 -6 -51 0 -68 3 -65 13 3
6 20 56 38 110 17 54 34 96 36 94 2 -2 20 -49 38 -105z"/>
<path d="M6100 5700 l0 -340 158 0 c180 0 252 14 322 61 94 64 140 158 140
284 0 123 -46 215 -138 274 -75 48 -145 61 -324 61 l-158 0 0 -340z m352 153
c56 -32 78 -76 78 -153 0 -115 -57 -170 -177 -170 l-63 0 0 176 0 177 65 -5
c37 -3 78 -14 97 -25z"/>
<path d="M6810 5817 c0 -261 8 -304 71 -372 53 -58 121 -86 207 -86 109 -1
160 18 225 79 68 66 77 109 77 372 l0 230 -90 0 -90 0 0 -205 c0 -221 -6 -257
-51 -289 -38 -27 -96 -21 -130 13 l-29 29 0 226 0 226 -95 0 -95 0 0 -223z"/>
<path d="M7700 6037 c0 -1 -54 -151 -120 -332 -66 -181 -120 -333 -120 -337 0
-4 43 -8 94 -8 l95 0 17 55 18 56 125 -3 124 -3 17 -50 17 -50 98 -3 c76 -2
96 0 93 10 -3 7 -58 160 -123 341 l-118 327 -109 0 c-59 0 -108 -1 -108 -3z
m149 -317 c17 -52 31 -98 31 -103 0 -4 -31 -7 -70 -7 -48 0 -70 4 -70 12 0 25
65 207 71 200 4 -4 21 -50 38 -102z"/>
<path d="M8230 5700 l0 -340 90 0 90 0 0 185 c0 102 3 185 8 185 4 0 62 -84
130 -185 l122 -185 90 0 90 0 0 340 0 340 -90 0 -90 0 -2 -192 -3 -193 -125
193 -125 192 -92 0 -93 0 0 -340z"/>
<path d="M5421 5142 c-95 -48 -105 -172 -20 -235 37 -27 106 -33 152 -14 36
16 37 17 37 71 0 49 -3 56 -19 56 -17 0 -20 -8 -23 -47 l-3 -48 -48 -3 c-41
-3 -51 1 -77 27 -42 42 -42 100 0 143 32 32 25 31 139 16 38 -5 37 21 -3 37
-47 20 -93 19 -135 -3z"/>
<path d="M5770 5020 l0 -140 100 0 c93 0 100 1 100 20 0 18 -7 20 -81 20 l-80
0 3 43 3 42 68 3 c51 2 67 6 67 17 0 12 -15 15 -70 15 l-70 0 0 40 0 40 75 0
c68 0 75 2 75 20 0 19 -7 20 -95 20 l-95 0 0 -140z"/>
<path d="M6130 5020 l0 -143 83 5 c123 7 173 41 183 125 6 49 -20 101 -65 127
-24 14 -59 21 -118 24 l-83 5 0 -143z m189 74 c27 -22 31 -32 31 -74 0 -42 -4
-52 -31 -74 -25 -21 -41 -26 -85 -26 l-54 0 0 100 0 100 54 0 c44 0 60 -5 85
-26z"/>
<path d="M6560 5055 c0 -100 1 -106 28 -135 34 -40 93 -50 144 -26 48 23 58
51 58 166 0 93 -1 100 -20 100 -19 0 -20 -7 -20 -100 0 -115 -13 -140 -72
-140 -63 0 -78 29 -78 149 0 84 -1 91 -20 91 -19 0 -20 -7 -20 -105z"/>
<path d="M6970 5020 c0 -133 1 -140 20 -140 19 0 20 7 20 89 0 50 3 92 8 95 4
2 42 -38 85 -90 42 -52 84 -94 92 -94 13 0 15 23 15 140 0 133 -1 140 -20 140
-19 0 -20 -7 -20 -96 0 -113 3 -114 -97 13 -96 121 -103 117 -103 -57z"/>
<path d="M7451 5142 c-95 -48 -105 -172 -20 -235 37 -27 106 -33 152 -14 36
16 37 17 37 71 0 49 -3 56 -19 56 -17 0 -20 -8 -23 -47 l-3 -48 -48 -3 c-41
-3 -51 1 -77 27 -42 42 -42 100 0 143 32 32 25 31 139 16 38 -5 37 21 -3 37
-47 20 -93 19 -135 -3z"/>
<path d="M8000 5020 l0 -140 25 0 c24 0 25 3 25 55 l0 55 65 0 c58 0 65 2 65
20 0 18 -7 20 -65 20 l-65 0 0 45 0 45 75 0 c68 0 75 2 75 20 0 19 -7 20 -100
20 l-100 0 0 -140z"/>
<path d="M8378 5144 c-30 -16 -44 -51 -34 -88 4 -18 19 -29 53 -41 103 -37
103 -37 103 -61 0 -17 -7 -25 -25 -30 -27 -7 -91 -1 -116 10 -11 5 -19 2 -23
-9 -9 -24 56 -48 117 -42 59 5 90 32 90 77 0 40 -9 48 -84 74 -71 24 -92 47
-67 72 15 15 54 19 112 11 30 -3 31 22 1 33 -37 14 -95 12 -127 -6z"/>
<path d="M8670 5140 c0 -17 7 -20 45 -20 l45 0 0 -120 c0 -113 1 -120 20 -120
19 0 20 7 20 120 l0 120 45 0 c38 0 45 3 45 20 0 19 -7 20 -110 20 -103 0
-110 -1 -110 -20z"/>
</g>
</svg>
